<?xml version="1.0" standalone="no"?>
<!DOCTYPE svg PUBLIC "-//W3C//DTD SVG 20010904//EN"
 "http://www.w3.org/TR/2001/REC-SVG-20010904/DTD/svg10.dtd">
<svg version="1.0" xmlns="http://www.w3.org/2000/svg"
 width="96.000000pt" height="96.000000pt" viewBox="0 0 96.000000 96.000000"
 preserveAspectRatio="xMidYMid meet">
<metadata>
Created by potrace 1.11, written by Peter Selinger 2001-2013
</metadata>
<g transform="translate(0.000000,96.000000) scale(0.100000,-0.100000)"
fill="#000000" stroke="none">
<path d="M452 502 c-46 -169 -86 -317 -89 -329 -5 -20 -2 -23 28 -23 l34 0 83
308 c46 169 86 317 89 330 5 19 2 22 -28 22 l-34 0 -83 -308z"/>
<path d="M126 625 l-108 -145 108 -145 c60 -80 111 -145 114 -145 3 0 16 9 29
19 l24 18 -92 121 c-50 67 -91 126 -91 132 0 6 41 65 91 132 l92 121 -24 18
c-13 10 -26 19 -29 19 -3 0 -54 -65 -114 -145z"/>
<path d="M691 751 l-24 -18 92 -121 c50 -67 91 -126 91 -132 0 -6 -41 -65 -91
-132 l-92 -121 24 -18 c13 -10 26 -19 29 -19 3 0 54 65 114 145 l108 145 -108
145 c-60 80 -111 145 -114 145 -3 0 -16 -9 -29 -19z"/>
</g>
</svg>
